<svg width="41" height="40" viewBox="0 0 41 40" fill="none" xmlns="http://www.w3.org/2000/svg">
<rect x="0.338867" width="39.7114" height="40" rx="19.8557" fill="#FFCC00"/>
<rect x="9.27441" y="7" width="24.8098" height="25.0435" fill="#D8D8D8" fill-opacity="0.01"/>
<path fill-rule="evenodd" clip-rule="evenodd" d="M14.3255 23.5286C17.4417 26.6742 22.5324 26.6742 25.6487 23.5286C28.7642 20.3837 28.7642 15.2807 25.6526 12.1029C22.5324 8.95324 17.4417 8.95324 14.3255 12.0988C11.2092 15.2444 11.2092 20.383 14.3255 23.5286ZM24.2824 13.4792C26.6443 15.8915 26.6443 19.7651 24.2824 22.1493C21.9211 24.5327 18.0545 24.5327 15.6932 22.1493C13.332 19.7658 13.332 15.8627 15.6932 13.4792C18.0545 11.0957 21.9211 11.0957 24.2824 13.4792Z" fill="#4A4A4A"/>
<path d="M25.6487 23.5286L25.5066 23.3879L25.6487 23.5286ZM14.3255 23.5286L14.4675 23.3879L14.3255 23.5286ZM25.6526 12.1029L25.7955 11.9629L25.7947 11.9621L25.6526 12.1029ZM14.3255 12.0988L14.1834 11.9581L14.3255 12.0988ZM24.2824 22.1493L24.1403 22.0085L24.2824 22.1493ZM24.2824 13.4792L24.4253 13.3393L24.4245 13.3385L24.2824 13.4792ZM15.6932 22.1493L15.5512 22.29L15.6932 22.1493ZM15.6932 13.4792L15.5512 13.3385L15.6932 13.4792ZM25.5066 23.3879C22.4686 26.4545 17.5055 26.4545 14.4675 23.3879L14.1834 23.6694C17.3779 26.8939 22.5962 26.8939 25.7907 23.6694L25.5066 23.3879ZM25.5097 12.2428C28.5456 15.3433 28.5445 20.3213 25.5066 23.3879L25.7907 23.6694C28.9839 20.4461 28.9829 15.2181 25.7955 11.9629L25.5097 12.2428ZM14.4675 12.2396C17.5055 9.17306 22.4685 9.17292 25.5106 12.2436L25.7947 11.9621C22.5963 8.73356 17.3779 8.73343 14.1834 11.9581L14.4675 12.2396ZM14.4675 23.3879C11.4285 20.3202 11.4285 15.3072 14.4675 12.2396L14.1834 11.9581C10.9899 15.1816 10.9899 20.4458 14.1834 23.6694L14.4675 23.3879ZM24.4245 22.29C26.8641 19.8274 26.8629 15.8288 24.4253 13.3393L24.1395 13.6191C26.4257 15.9541 26.4246 19.7027 24.1403 22.0085L24.4245 22.29ZM15.5512 22.29C17.9907 24.7525 21.985 24.7525 24.4245 22.29L24.1403 22.0085C21.8573 24.313 18.1183 24.313 15.8353 22.0085L15.5512 22.29ZM15.5512 13.3385C13.1127 15.7999 13.1127 19.8286 15.5512 22.29L15.8353 22.0085C13.5513 19.7029 13.5513 15.9255 15.8353 13.62L15.5512 13.3385ZM24.4245 13.3385C21.985 10.876 17.9907 10.876 15.5512 13.3385L15.8353 13.62C18.1183 11.3155 21.8573 11.3155 24.1403 13.62L24.4245 13.3385Z" fill="#4A4A4A"/>
<path d="M24.3778 23.6269L29.8875 29.1885C30.265 29.5696 30.8771 29.5696 31.2545 29.1885C31.632 28.8075 31.632 28.1897 31.2545 27.8087L25.7448 22.2471C25.3674 21.866 24.7553 21.866 24.3778 22.2471C24.0004 22.6281 24.0004 23.2459 24.3778 23.6269Z" fill="#4A4A4A" stroke="#4A4A4A" stroke-width="0.4"/>
</svg>
